<svg width="24" height="24" viewBox="0 0 24 24" fill="none" xmlns="http://www.w3.org/2000/svg">
<g clip-path="url(#clip0_1_8345)">
<mask id="mask0_1_8345" style="mask-type:luminance" maskUnits="userSpaceOnUse" x="0" y="0" width="24" height="24">
<path d="M21.2221 4.80634C21.0102 4.26231 20.7574 3.87273 20.35 3.46539C19.9413 3.05668 19.5531 2.8038 19.0077 2.5933C18.5963 2.43337 17.9784 2.24336 16.8411 2.19142C15.6109 2.13538 15.2418 2.12308 12.1266 2.12308C9.01142 2.12308 8.64235 2.13538 7.41212 2.19142C6.27484 2.24336 5.65699 2.43337 5.24555 2.5933C4.70152 2.80517 4.31194 3.05805 3.9046 3.46539C3.49589 3.8741 3.24301 4.26231 3.03251 4.80634C2.87258 5.21778 2.68257 5.83563 2.63063 6.97291C2.57459 8.20314 2.56228 8.57221 2.56228 11.6874C2.56228 14.8026 2.57459 15.1717 2.63063 16.4019C2.68257 17.5392 2.87258 18.1571 3.03251 18.5685C3.24438 19.1125 3.49726 19.5021 3.9046 19.9094C4.31331 20.3182 4.70152 20.5697 5.24555 20.7815C5.65699 20.9415 6.27484 21.1315 7.41212 21.1834C8.64235 21.2395 9.01142 21.2518 12.1266 21.2518C15.2418 21.2518 15.6109 21.2395 16.8411 21.1834C17.9784 21.1315 18.5963 20.9415 19.0077 20.7815C19.5531 20.5697 19.9413 20.3168 20.35 19.9094C20.7574 19.5007 21.0102 19.1125 21.2221 18.5685C21.382 18.1571 21.5721 17.5392 21.624 16.4019C21.68 15.1717 21.6923 14.8026 21.6923 11.6874C21.6923 8.57221 21.68 8.20314 21.624 6.97291C21.5721 5.83563 21.382 5.21778 21.2221 4.80634ZM12.128 17.6786C8.81868 17.6786 6.13678 14.9967 6.13678 11.6874C6.13678 8.3781 8.81868 5.69621 12.128 5.69621C15.4373 5.69621 18.1192 8.3781 18.1192 11.6874C18.1192 14.9967 15.4373 17.6786 12.128 17.6786ZM18.3557 6.85946C17.582 6.85946 16.956 6.23204 16.956 5.45973C16.956 4.68742 17.5834 4.06 18.3557 4.06C19.128 4.06 19.7554 4.68605 19.7554 5.45973C19.7554 6.23341 19.128 6.85946 18.3557 6.85946ZM12.128 7.79853C9.98056 7.79853 8.23911 9.53999 8.23911 11.6874C8.23911 13.8349 9.98056 15.5763 12.128 15.5763C14.2754 15.5763 16.0169 13.8349 16.0169 11.6874C16.0169 9.53999 14.2754 7.79853 12.128 7.79853ZM23.7249 16.4976C23.6675 17.7388 23.4707 18.5876 23.1823 19.3299C22.8843 20.0967 22.4852 20.7474 21.8359 21.3967C21.1866 22.0446 20.5373 22.4437 19.7691 22.7417C19.0268 23.0301 18.1794 23.227 16.9368 23.2844C15.6929 23.3404 15.2951 23.3541 12.1266 23.3541C8.95811 23.3541 8.5617 23.3404 7.31643 23.2844C6.07527 23.227 5.22641 23.0301 4.48418 22.7417C3.71733 22.4437 3.06668 22.0446 2.41739 21.3967C1.7681 20.7474 1.37033 20.0967 1.07234 19.3299C0.783921 18.5876 0.587085 17.7401 0.529674 16.4976C0.47363 15.2537 0.459961 14.8559 0.459961 11.6874C0.459961 8.5189 0.47363 8.12112 0.529674 6.87723C0.585718 5.63606 0.783921 4.7872 1.07234 4.04497C1.37033 3.27812 1.76947 2.62747 2.41739 1.97818C3.06668 1.33026 3.71597 0.931121 4.48418 0.633132C5.22641 0.344712 6.0739 0.147876 7.31643 0.0904649C8.56033 0.0330542 8.95811 0.020752 12.1266 0.020752C15.2951 0.020752 15.6929 0.0344212 16.9368 0.0904649C18.178 0.146509 19.0268 0.344712 19.7691 0.633132C20.5359 0.931121 21.1866 1.33026 21.8359 1.97818C22.4838 2.62747 22.8829 3.27812 23.1823 4.04497C23.4707 4.7872 23.6675 5.6347 23.7249 6.87723C23.7824 8.12112 23.7947 8.5189 23.7947 11.6874C23.7947 14.8559 23.781 15.2537 23.7249 16.4976Z" fill="white"/>
</mask>
<g mask="url(#mask0_1_8345)">
<rect x="0.153809" y="-0.311523" width="23.9211" height="23.9211" fill="#A93800"/>
</g>
</g>
<defs>
<clipPath id="clip0_1_8345">
<rect width="23.3333" height="23.3333" fill="white" transform="translate(0.461426 0.020752)"/>
</clipPath>
</defs>
</svg>
