<svg width="22" height="22" viewBox="0 0 22 22" fill="none" xmlns="http://www.w3.org/2000/svg">
<g clip-path="url(#clip0_1_8373)">
<path d="M5.24515 7.62915H0.734619V21.5208H5.24515V7.62915Z" fill="#A93800"/>
<path d="M2.99024 0.6875C1.53577 0.6875 0.585742 1.73001 0.615168 3.11862C0.585742 4.44557 1.53437 5.51891 2.95941 5.51891C4.38445 5.51891 5.39333 4.44557 5.39333 3.11862C5.3639 1.73001 4.4447 0.6875 2.99024 0.6875Z" fill="#A93800"/>
<path d="M16.4619 7.30273C14.4974 7.30273 13.148 8.23455 12.3955 9.07668V7.62922H7.88501V21.5209H12.3955V13.7722C12.3955 13.356 12.4544 12.9118 12.5735 12.6442C12.8705 11.8133 13.6118 10.9529 14.8589 10.9529C16.4913 10.9529 17.1443 12.2294 17.1443 14.0986V21.5209H21.6548V13.5354C21.6548 9.26164 19.4297 7.30414 16.4619 7.30414V7.30273Z" fill="#A93800"/>
</g>
<defs>
<clipPath id="clip0_1_8373">
<rect width="21.0393" height="20.8333" fill="white" transform="translate(0.615479 0.6875)"/>
</clipPath>
</defs>
</svg>
