<svg width="1512" height="140" viewBox="0 0 1512 140" fill="none" xmlns="http://www.w3.org/2000/svg">
<path d="M0 0V88.6202C0.857197 88.8315 1.70249 89.0312 2.57159 89.2196C4.22646 89.5849 6.79805 89.9503 8.04813 89.5621C14.739 87.5071 20.3703 89.4936 26.1207 90.4583C35.7642 88.1522 45.5267 88.272 55.6583 89.5564C56.0631 89.3737 56.6702 89.0883 57.1465 88.8657C59.9204 89.642 63.0992 90.1729 65.3136 91.2232C70.7664 93.809 76.8263 95.2418 84.9339 94.671C85.7792 95.2703 86.7555 95.9553 87.6722 96.6061C102.125 94.6881 115.841 92.5304 127.115 87.7868C132.52 89.6991 138.294 88.272 142.842 88.82C145.39 89.6934 147.343 90.367 149.236 91.0177C149.319 91.7027 149.402 92.3648 149.533 93.3238C154.105 92.9071 158.081 92.205 161.974 92.2963C165.784 92.382 169.523 93.2839 173.439 93.8433C174.344 93.5693 175.463 93.2268 176.416 92.9414C177.856 93.4037 178.952 93.7519 180.202 94.1515C182.107 93.0498 183.75 92.1023 185.405 91.149C185.631 91.3202 185.857 91.4972 186.083 91.6684C190.333 90.6866 194.584 89.7048 198.751 88.7458C205.215 91.383 213.847 90.2243 220.466 92.2393C224.931 90.4126 230.241 91.9253 235.17 91.1319C236.551 90.3955 238.098 89.5678 239.884 88.6145H243.599C244.178 87.0048 246.039 85.7414 249.182 84.8243C254.873 84.3733 259.433 84.0993 263.898 83.6027C265.326 83.4429 266.374 82.5124 267.826 82.2384C274.708 80.9427 281.732 80.4803 288.744 81.6448C295.673 80.0636 303.329 80.2577 311.115 79.6869C312.651 78.6822 314.186 77.6776 315.508 76.8156C320.223 76.8156 325.068 76.1478 328.521 76.9697C333.747 78.2198 337.14 77.3522 340.902 76.0621C350.629 75.3201 360.035 77.3636 369.761 76.8499C370.654 76.8042 371.642 77.2609 372.595 77.4664C374.535 77.8945 377.369 77.2609 378.048 79.2017C378.321 79.9666 381.834 80.4404 384.346 81.1824C385.655 80.9198 387.358 80.5773 388.977 80.252C391.929 80.8228 394.846 81.3822 397.311 81.856C399.394 81.4964 401.12 81.2053 403.216 80.8456C404.287 81.6048 405.264 82.2898 406.192 82.9406C407.49 82.4439 408.311 82.13 408.931 81.8903C413.978 83.1004 419.264 83.8596 423.229 85.4579C427.598 87.2217 434.111 86.2228 436.98 88.5689C444.576 88.9399 451.659 89.6649 458.696 89.5336C467.637 89.368 474.697 91.0577 480.375 93.4894C482.959 93.3067 485.173 92.7701 486.495 93.1183C492.674 94.7281 500.341 94.9221 504.365 98.0331C511.604 97.5137 521.235 99.346 528.2 102.417C528.783 102.149 529.367 101.88 529.974 101.606C532.172 102.166 535.236 102.467 539.165 102.508C541.546 104.084 544.022 105.916 546.915 107.554C548.475 108.439 550.749 108.999 552.713 109.695C553.071 109.821 553.487 109.906 553.583 109.929C554.702 109.627 555.63 109.375 556.821 109.056C557.999 109.815 559.035 110.483 559.821 110.979C567.941 111.151 570.869 111.573 577.929 113.537C579.929 113.177 581.882 112.823 584.215 112.401C587.096 114.307 590.204 115.928 592.263 117.835C595.002 120.364 598.621 122.133 604.026 123.001C604.693 122.693 605.3 122.407 606.074 122.053C608.991 123.195 611.955 124.348 615.205 125.615H623.599C624.932 126.403 626.373 127.259 627.837 128.121C630.302 126.511 634.171 127.91 636.385 127.059C639.052 126.032 641.707 126.62 644.314 126.369C647.195 126.089 650.398 127.048 653.017 125.644C655.113 124.519 657.16 126.745 660.137 125.661C662.137 124.936 665.994 125.524 668.233 125.524C670.126 126.386 671.304 126.922 672.34 127.391C675.281 126.374 677.697 125.547 679.59 124.89C684.674 124.502 689.198 124.16 693.722 123.811C698.246 123.463 702.759 123.121 708.485 122.681C710.914 121.637 714.224 120.204 717.759 118.68H720.926C721.248 118.206 721.593 117.709 721.891 117.276C723.117 116.939 724.2 116.528 725.427 116.328C728.796 115.774 731.748 114.353 735.915 115.928C737.737 116.613 742.13 116.659 743.94 115.997C747.071 114.861 750.428 115.746 753.214 114.901C754.738 114.342 756.321 113.736 758.06 113.594C764.072 113.097 769.834 112.058 775.061 110.66C778.906 109.632 782.478 109.181 787.478 109.335C787.978 109.729 788.859 110.409 789.657 111.031C790.705 110.625 791.24 110.409 791.752 110.209C792.359 110.517 792.764 110.717 792.907 110.791C796.014 109.706 799.074 108.639 802.122 107.572C809.991 108.142 816.266 104.324 824.361 105.517C831.838 104.586 839.648 104.655 847.089 103.399C849.542 102.982 852.756 103.747 855.982 103.998C860.054 101.932 865.638 102.434 870.9 102.68C878.996 104.118 886.615 106.219 895.068 107.012C896.33 107.583 897.521 108.12 899.319 108.936C901.7 105.768 907.855 107.44 910.962 105.665C912.557 106.436 913.76 107.012 914.522 107.383C917.463 107.594 919.927 107.674 922.284 107.96C924.892 108.279 927.606 106.818 929.511 107.646C932.094 108.77 933.737 107.075 935.845 107.554C937.023 107.823 938.321 108.062 939.595 108.114C941.666 108.199 943.774 108.171 945.845 108.08C946.845 108.034 947.798 107.606 948.786 107.594C951.119 107.572 953.358 109.21 955.477 108.239C958.132 107.029 959.691 109.495 962.275 108.222C963.835 109.21 965.406 110.197 966.716 111.025H973.573C974.704 111.659 976.371 112.589 978.288 113.657C979.002 113.394 979.859 113.08 980.728 112.76C984.05 114.319 988.241 114.598 992.443 114.381C993.646 114.992 994.646 115.495 996.075 116.22C998.73 116.065 1001.78 115.888 1005.05 115.7C1006.96 116.585 1008.98 117.806 1011.52 118.628C1014.3 119.53 1014.87 121.34 1019.14 122.242H1023.74C1024.59 122.807 1025.43 123.372 1026.15 123.851H1034.18C1037.48 125.113 1040.28 126.192 1043.46 127.408C1047.02 126.557 1051.45 128.133 1055.2 126.42C1055.8 126.146 1057.72 126.58 1059.02 126.728C1060.3 126.871 1061.57 127.196 1062.83 127.196C1067.89 127.196 1072.08 128.247 1076.29 129.993C1077.79 129.291 1079.33 128.572 1080.9 127.836C1083.08 128.264 1084.78 128.892 1086.47 128.886C1095.02 128.84 1103.3 130.285 1111.95 129.856C1115.59 129.674 1119.37 130.222 1124.11 130.49C1129.19 128.875 1135.4 127.276 1142.54 128.213C1144.5 128.726 1146.29 129.189 1148.05 129.645C1148.5 129.417 1148.91 129.211 1150.16 128.584C1153.6 130.119 1156.7 131.563 1161.49 131.558C1165.55 131.552 1168.73 134.566 1173.36 132.528C1176.94 133.664 1180.29 134.731 1183.72 135.816C1188.13 135.473 1192.84 136.358 1197.38 135.045C1198.93 136.118 1200.5 137.203 1202.1 138.31C1205.43 137.762 1208.86 137.123 1212.39 136.644C1216.1 136.136 1219.89 137.62 1223.65 136.621C1225.02 137.26 1226.39 137.905 1226.85 138.122C1231.18 137.774 1234.32 137.523 1237.71 137.249C1238.47 136.86 1239.47 136.358 1240.46 135.856C1241.54 136.175 1242.61 136.495 1243.58 136.781C1244.52 136.352 1245.11 136.073 1245.84 135.742C1249.03 138.356 1254.85 138.076 1259.79 139.001C1260.88 138.173 1261.98 137.334 1263.04 136.529C1264.85 136.958 1266.22 137.277 1267.1 137.488C1269.15 136.204 1270.87 135.131 1272.34 134.2C1276.13 135.359 1279.54 134.834 1282.76 134.897C1285.64 134.954 1288.45 136.997 1291.88 134.532C1293.77 135.588 1295.44 136.518 1297.37 137.597C1298.57 137.374 1300.03 137.095 1301.5 136.821C1305.65 136.158 1309.95 137.032 1314.48 136.164C1318.15 135.456 1322.82 136.164 1326.79 135.696C1331 135.194 1334.71 137.991 1339.18 135.702C1341.85 137.192 1344.48 138.659 1346.89 140H1358.9C1360.59 139.144 1362.18 138.339 1363.6 137.62C1367.1 137.003 1371.09 138.385 1373.99 136.644C1374.6 136.929 1375.21 137.214 1375.68 137.443C1378.87 137.026 1381.91 136.632 1384.94 136.238V134.577C1386.97 133.533 1388.93 132.517 1390.93 131.489C1393.79 131.706 1396.67 131.198 1399.62 132.26C1401.74 133.019 1405.15 132.853 1407.98 133.099C1409.67 131.506 1410.83 133.573 1412.62 133.287C1414.33 133.019 1416.48 133.213 1418.29 133.458C1425.71 134.457 1427.24 134.554 1434.1 134.081C1434.94 134.023 1435.79 134.046 1436.63 134.081C1443.2 134.303 1449.59 133.858 1455.28 132.893C1457.56 130.718 1461.71 129.874 1464.62 128.389C1468.31 126.5 1466.87 123.749 1469.53 121.899C1468.63 121.288 1468 120.866 1467.43 120.484C1469.88 118.794 1472.88 117.407 1474.07 115.694C1474.9 114.501 1475.8 113.52 1477.21 112.481C1478.95 111.202 1480.14 109.678 1481.05 108.182C1481.4 107.594 1480.33 106.79 1479.9 106.082C1481.09 105.477 1482.3 104.872 1483.76 104.13C1488.57 104.552 1492.27 103.325 1495.63 101.561C1500.26 99.1234 1505.81 97.428 1512.01 96.1037V0H0Z" fill="white"/>
</svg>
