<svg width="1512" height="139" viewBox="0 0 1512 139" fill="none" xmlns="http://www.w3.org/2000/svg">
<path d="M1512 140.036L1512 9.58484C1511.55 9.54488 1511.08 9.51064 1510.63 9.47069C1510.45 9.08829 1510.29 8.73442 1510.05 8.23215L1503.18 8.23215C1503 8.48898 1502.7 8.92847 1502.3 9.50493L1498.71 9.50493C1498.33 10.0643 1498.02 10.5152 1497.62 11.103C1493.99 11.4626 1490.22 11.8336 1486.25 12.2274C1486.03 12.4957 1485.68 12.9351 1485.28 13.4146L1478.38 13.4146C1475.84 12.3872 1474.13 11.7023 1472.47 11.0288C1469.11 12.3986 1465.44 12.1418 1462.16 11.8621C1455.62 11.3085 1455.67 11.143 1448.12 11.9535C1444.28 12.3644 1441.03 11.2343 1437.44 11.0117C1436.69 10.1327 1435.94 9.2595 1435.06 8.22643L1428.53 8.22643C1427.2 9.0369 1425.7 9.96723 1423.9 11.0745L1416.01 11.0745C1415.86 10.772 1415.68 10.4238 1415.32 9.7161C1411.77 9.49921 1407.85 9.68757 1404.04 9.61336C1403.58 10.1898 1403.24 10.635 1402.81 11.1715C1401.59 11.1715 1400.32 11.2571 1399.12 11.1544C1393.32 10.6635 1387.87 12.0219 1382.19 11.9192C1379.33 11.8678 1376.49 11.5482 1373.84 11.3599C1372.46 10.0015 1371.27 8.83713 1369.95 7.54723C1368.53 7.42166 1367.14 7.30181 1365.75 7.18195C1365.4 6.73105 1365.07 6.29158 1364.6 5.68086C1364.01 6.29729 1363.54 6.78243 1362.86 7.47304C1362.48 6.87946 1362.22 6.45709 1361.86 5.89775L1356.73 5.89775C1356.35 5.33841 1356.05 4.89324 1355.66 4.30536L1339.84 4.30536C1339.56 3.85446 1339.35 3.51201 1338.9 2.77573C1333.91 2.41045 1328.44 2.01663 1322.69 1.59997C1322.62 1.42305 1322.48 1.07489 1322.25 0.532668L1317.41 0.532667C1315.44 1.6114 1313.34 2.7586 1310.76 4.16836C1310.26 4.18548 1309.07 4.22545 1307.7 4.2711C1307.41 4.68776 1307.1 5.13865 1306.72 5.67515L1299.92 5.67515C1299.76 5.33841 1299.61 4.99025 1299.37 4.44804C1298.24 4.3396 1296.85 4.20832 1295.26 4.05421C1295.13 3.74031 1294.99 3.38644 1294.83 3.00404C1289.88 1.74838 1284.47 1.78833 1278.95 1.93672C1278.44 1.3945 1277.95 0.863703 1277.18 0.0361123C1274.24 1.70272 1271.31 3.31223 1266.76 2.62733C1264.89 4.50511 1263.17 6.21166 1261.71 7.67851C1257.35 8.79717 1254.04 7.45591 1249.76 7.20477C1248.34 8.42619 1246.82 9.74462 1245.22 11.1258C1242.14 11.3941 1238.47 10.6635 1235.48 11.9306C1233.72 11.5996 1231.96 11.2742 1229.5 10.8176C1229.41 10.2012 1229.27 9.23664 1229.12 8.34057C1226.11 7.48443 1226.49 8.84853 1225.73 9.52202C1224.59 9.58481 1223.38 9.6533 1221.97 9.73321C1221.83 10.0757 1221.69 10.4295 1221.53 10.8233C1215.49 12.4956 1208.66 11.7537 1202.24 11.9877C1201.97 12.5071 1201.79 12.8552 1201.54 13.3461L1193.06 13.3461C1192.82 14.4248 1192.62 15.3837 1192.37 16.5137C1188.38 16.548 1184.31 16.6564 1182.25 19.339C1181.27 18.6826 1180.67 18.2774 1179.33 17.3813C1177.55 17.1302 1174.59 16.7078 1171.56 16.2797C1171.43 16.0229 1171.25 15.6747 1170.99 15.1839L1162.59 15.1839C1162.4 15.4578 1162.1 15.9087 1161.72 16.4738L1156.51 16.4738C1155.72 15.5948 1154.85 14.6188 1153.85 13.5059L1145.91 13.5059C1145.47 12.9237 1145.14 12.4785 1144.75 11.9534C1142.47 11.9534 1140.17 12.079 1137.95 11.9135C1136.11 11.7765 1134.39 11.2971 1132.02 10.8633C1131.84 10.6749 1131.35 10.1499 1130.86 9.63046L1129.08 9.63046C1128.79 10.0471 1128.49 10.498 1128.01 11.2114C1121.31 10.5494 1114.52 13.7399 1107.61 11.0345C1107.44 10.9375 1107.15 10.8462 1107.15 10.7491C1107.11 9.97862 1107.12 9.20809 1107.12 8.84852C1104.78 7.66136 1102.86 6.70249 1100.76 5.64089C1099.67 6.4057 1098.91 7.49584 1097.47 7.81545C1095.73 8.20358 1094.94 8.70584 1094.31 9.63046L1090.76 9.63046C1088.16 10.6635 1086.6 11.2742 1084.95 11.9249L1074.5 11.9249C1071.46 14.6702 1068.47 17.3756 1065.13 20.4063C1061.5 20.6403 1056.84 19.9953 1052.93 21.2681C1052.27 21.4793 1052.16 22.1128 1051.7 22.6836C1050.1 22.7292 1048.4 22.7749 1046.54 22.832C1046.23 23.2543 1045.92 23.7052 1045.54 24.2303L1028.29 24.2303C1027.91 23.7566 1027.57 23.3114 1027.16 22.8833C1027.09 22.8091 1026.73 22.8034 1026.02 22.6779C1023.85 24.6013 1020.27 25.4631 1015.9 25.0693C1015.59 25.68 1015.4 26.0282 1015.15 26.5133L1004 26.5133C1003.03 27.6035 1002.16 28.5852 1001.1 29.7609C994.788 28.939 991.169 30.9994 986.847 33.4366L981.072 33.4366C979.739 32.6204 978.239 31.6958 976.477 30.6227C971.643 30.2746 966.345 29.8865 960.963 29.4984C960.689 29.1445 960.344 28.705 959.999 28.2541L950.093 28.2541C947.593 29.2358 946.033 29.8522 944.295 30.5371C941.449 30.1148 938.056 31.1821 935.103 29.7723C934.293 29.3842 931.924 29.4641 930.674 29.7609C926.185 30.8282 921.447 30.3716 916.887 30.5086C915.922 31.5474 915.018 32.5176 914.077 33.5336L910.898 33.5336C909.946 32.5747 908.898 31.5302 907.862 30.4857C906.814 30.4857 905.802 30.4857 904.778 30.4857C903.588 31.6558 902.397 32.8258 901.052 34.15C899.147 34.2584 897.242 34.3669 895.634 34.4525C893.67 35.6796 891.86 36.8097 889.824 38.0825L881.776 38.0825C881.395 38.6418 881.097 39.087 880.692 39.6749L863.333 39.6749C863.071 40.1258 862.869 40.4739 862.476 41.1417C860.464 41.2045 858.107 41.273 855.761 41.3472C855.321 40.7707 854.975 40.3312 854.57 39.8061C853.654 39.7833 852.665 39.7605 851.713 39.7434C848.32 41.7467 845.486 44.1781 839.081 43.5731C838.557 44.1325 838.08 44.6347 837.414 45.3539C837.092 44.7888 836.902 44.4464 836.604 43.927C834.187 43.6302 831.485 43.2934 828.21 42.8882C827.377 43.5332 826.365 44.3265 825.424 45.0457L817.304 45.0457C817.066 44.5719 816.876 44.2238 816.709 43.887C811.911 43.516 807.113 43.1507 802.184 42.7741C801.886 42.3574 801.565 41.9122 801.148 41.33L782.205 41.33C782.015 40.862 781.872 40.5139 781.658 39.9545L774.478 39.9545C774.359 40.257 774.204 40.6109 773.99 41.136L769.228 41.136C767.561 42.7798 765.263 43.7158 761.929 43.5959C758.774 43.4818 755.643 43.9441 752.381 43.1393C750.095 42.58 747.023 42.8483 744.403 42.7512C743.725 42.209 743.046 41.6668 741.832 40.6965C740.939 41.7239 740.498 42.2375 740.046 42.7683L734.831 42.7683C734.652 42.346 734.51 41.9978 734.295 41.4727L716.948 41.4727C715.615 42.7626 713.364 43.6302 709.983 43.6245C705.661 43.6188 701.351 43.6245 696.958 43.6245C696.077 44.6119 695.196 45.5936 694.255 46.6438L689.255 46.6437C688.433 45.7248 687.647 44.8573 686.826 43.9327C685.064 43.613 683.075 43.2535 681.182 42.911L681.182 39.0699C679.087 38.014 677.337 37.1407 674.991 35.965L663.049 35.965C662.895 36.3588 662.752 36.7126 662.525 37.2606L657.025 37.2606C656.715 36.8154 656.406 36.3702 655.965 35.7538C655.346 36.4273 654.87 36.9409 654.405 37.4432L651.131 37.4432C650.286 36.4958 649.405 35.5141 648.56 34.5723C646.619 34.1271 644.702 33.6877 643.059 33.3053C642.809 32.7916 642.642 32.4434 642.464 32.0781L639.142 32.0781C638.57 32.5747 637.939 33.1397 636.963 33.9959C634.272 32.3692 632.022 31.0051 629.522 29.4983C628.391 29.8579 627.402 30.1775 625.795 30.6912C624.605 29.9036 623.366 29.0931 621.807 28.0714L617.259 28.0714C617.008 27.5863 616.83 27.2381 616.58 26.7587L609.841 26.7587C609.353 27.1982 608.734 27.7632 607.484 28.8933C606.591 27.7975 606.174 27.2952 605.733 26.753C604.579 26.6845 603.376 26.616 601.959 26.5304C601.816 26.1994 601.673 25.8455 601.412 25.2177C600.495 25.1834 599.316 25.1663 598.149 25.0693C597.721 25.035 597.268 24.8353 596.982 24.6526C594.185 22.9004 591.649 21.0512 587.946 19.6985C586.946 19.3332 586.672 18.4542 585.874 17.5924C582.648 17.2386 578.909 16.8333 574.528 16.3539C574.444 16.1998 574.206 15.766 573.885 15.1838L571.218 15.1838C566.42 12.6896 562.181 10.4808 557.407 8.00376L545.489 8.00376C545.191 7.16476 544.929 6.45702 544.679 5.76641L542.774 5.76641C542.322 6.26296 541.834 6.77665 541.214 7.45585C540.798 6.85084 540.476 6.39995 540.107 5.85773L531.094 5.85773C527.82 8.04372 524.748 10.0813 521.581 12.1874C519.545 11.8506 517.974 11.5938 516.974 11.434C512.985 11.6908 509.413 11.9191 505.734 12.1531C505.592 12.467 505.437 12.8209 505.163 13.4487L499.781 13.4487C499.46 14.0709 499.281 14.419 499.031 14.9042L490.649 14.9042C490.459 14.6131 490.149 14.1679 489.745 13.5572C488.673 13.5229 487.459 13.483 486.101 13.4373C485.804 13.0207 485.494 12.5698 485.113 12.0333L461.277 12.0333C459.265 12.838 457.598 13.2661 456.657 13.951C455.61 14.7044 455.217 15.6975 454.538 16.565L451.073 16.565C450.812 16.1826 450.514 15.7432 450.121 15.1667L445.001 15.1667C444.62 14.6074 444.311 14.1622 443.93 13.6028L435.608 13.6028C435.453 13.8654 435.262 14.2135 434.869 14.8813C428.809 15.3151 422.308 14.8357 415.867 15.1039C415.498 15.5719 415.153 16.0171 414.546 16.7934C414.105 16.1712 413.831 15.8002 413.427 15.2124L408.474 15.2124C407.95 16.274 405.866 16.7876 404.033 17.1415C402.413 16.879 400.854 16.6221 398.961 16.3139C398.699 16.0457 398.246 15.5662 397.687 14.9841C397.199 15.5833 396.841 16.0285 396.46 16.508L386.65 16.508C386.483 16.097 386.34 15.7432 386.078 15.1153C385.09 15.0868 383.911 15.0526 382.721 15.0183C381.84 15.7432 380.971 16.4509 379.994 17.2442L370.172 17.2442C369.791 17.8036 369.481 18.2545 369.076 18.8366L362.397 18.8366C362.147 19.2932 361.969 19.6414 361.623 20.2864L349.943 20.2864L349.943 23.8536C346.252 24.9323 342.978 25.7028 338.942 24.3901C337.549 23.9392 335.096 24.3159 333.263 24.3159C332.953 23.7109 332.775 23.3627 332.525 22.8776L321.297 22.8776C320.916 22.3182 320.595 21.8673 320.226 21.3251L305.962 21.3251C305.093 22.2669 304.2 23.2428 303.283 24.236L289.032 24.236C288.96 22.6949 285.008 22.5294 285.043 20.7372C285.067 19.7099 282.043 18.6654 280.126 17.4668C271.089 16.8561 261.184 18.3344 252.099 16.2625C251.897 15.8173 251.742 15.4692 251.599 15.1324L244.646 15.1324C244.468 15.5605 244.313 15.9087 244.098 16.428L237.348 16.428C236.121 15.6518 234.657 14.7158 232.883 13.5914L222.358 13.5914C220.667 12.2045 219.179 10.9773 217.643 9.72169L203.427 9.72169C203.237 10.1555 203.082 10.5036 202.927 10.8689C202.772 10.9488 202.522 11.1315 202.427 11.1143C197.748 10.2639 193.271 13.2832 188.342 11.2399C187.283 10.8004 184.854 11.063 183.115 11.2114C181.77 11.3255 179.425 11.7536 179.425 12.0447C179.425 13.5058 175.174 13.2204 175.495 14.6873C175.519 14.7843 174.734 14.9213 173.745 15.2123C173.245 14.7729 172.745 14.3277 171.852 13.5457C169.828 13.5286 167.804 13.5343 165.518 13.5343C165.268 13.8996 164.971 14.3391 164.578 14.9098L160.911 14.9098C160.434 14.4761 159.803 13.911 158.553 12.7866C157.66 13.8768 157.255 14.3733 156.731 15.0069L150.326 15.0069C149.386 16.3824 148.54 17.6266 147.695 18.8709L141.385 18.8709C140.575 18.2088 139.706 17.5068 138.73 16.7134L128.002 16.7134C126.097 15.5833 124.561 14.6701 122.633 13.5286L113.37 13.5286C113.179 13.0606 113.024 12.7124 112.774 12.1017C108.274 12.4784 104.369 10.4865 98.9634 11.5196C94.7129 12.3357 89.5695 11.9476 84.4617 12.1017C84.2951 12.3586 83.9974 12.8038 83.6283 13.3574C83.0449 13.4088 82.3424 13.4715 81.509 13.54C81.1757 13.0492 80.8661 12.604 80.4851 12.0504L77.2824 12.0504C75.6273 13.0206 74.0797 13.9281 72.3295 14.9612L56.9944 14.9612C56.6134 14.4304 56.2919 13.9852 56.0181 13.5971L44.6835 13.5971C44.4453 14.048 44.2669 14.3962 44.0169 14.8927L29.6937 14.8927C29.3247 15.452 29.027 15.8972 28.646 16.4623L24.8955 16.4623C24.6693 16.1369 24.3599 15.6861 23.9551 15.1039L15.8469 15.1039C15.4421 14.5388 15.1207 14.0936 14.7634 13.6028C13.6087 13.54 12.4061 13.4715 10.9894 13.3916C10.8464 13.0435 10.7036 12.6896 10.5488 12.3072C7.11988 11.6851 3.60768 11.3655 0.000133331 11.2285L0.00012207 140.036L1512 140.036Z" fill="white"/>
</svg>
