<svg width="20" height="20" viewBox="0 0 20 20" fill="none" xmlns="http://www.w3.org/2000/svg">
<g clip-path="url(#clip0_1_1472)">
<path d="M15.1571 14.8616C13.8771 14.8616 12.8218 15.8945 12.8218 17.1969C12.8218 18.4768 13.8547 19.5322 15.1571 19.5322C16.437 19.5322 17.4924 18.4992 17.4924 17.1969C17.4699 15.9169 16.437 14.8616 15.1571 14.8616Z" fill="#F8FF00"/>
<path d="M19.2661 3.72395C19.2212 3.72395 19.1539 3.7015 19.0865 3.7015H4.94004L4.71549 2.19703C4.58076 1.20902 3.72748 0.468018 2.71702 0.468018H0.898188C0.404185 0.468018 0 0.872202 0 1.36621C0 1.86021 0.404185 2.26439 0.898188 2.26439H2.71702C2.82929 2.26439 2.91911 2.35421 2.94157 2.46649L4.33376 11.9424C4.5134 13.1325 5.54631 14.0307 6.75887 14.0307H16.1C17.2677 14.0307 18.2781 13.1998 18.5251 12.0546L19.9847 4.75687C20.0745 4.28532 19.7601 3.81377 19.2661 3.72395Z" fill="#F8FF00"/>
<path d="M9.43087 17.0846C9.38596 15.8496 8.35305 14.8616 7.11804 14.8616C5.81566 14.9289 4.82766 16.0068 4.87257 17.2867C4.91748 18.5217 5.92794 19.5097 7.16295 19.5097H7.20786C8.48777 19.4423 9.49824 18.3645 9.43087 17.0846Z" fill="#F8FF00"/>
</g>
<defs>
<clipPath id="clip0_1_1472">
<rect width="20" height="20" fill="white"/>
</clipPath>
</defs>
</svg>
