<svg width="20" height="20" viewBox="0 0 20 20" fill="none" xmlns="http://www.w3.org/2000/svg">
<path d="M18.9964 7.97946L18.9967 7.98055C19.0048 8.00549 18.9978 8.03158 18.9776 8.04919L18.9768 8.0499L14.6135 11.8758L14.1657 12.2684L14.2976 12.8491L15.5841 18.5163C15.5841 18.5163 15.5841 18.5164 15.5841 18.5164C15.5901 18.5429 15.5802 18.568 15.5592 18.5832L15.5591 18.5832C15.5379 18.5986 15.5127 18.5987 15.4931 18.587L15.4908 18.5856L10.5133 15.6096L10.0002 15.3028L9.48708 15.6095L4.5077 18.5855L4.50726 18.5857C4.49997 18.5901 4.49399 18.5924 4.48941 18.5937C4.48477 18.5949 4.48032 18.5955 4.47582 18.5955C4.47023 18.5955 4.46466 18.5947 4.45903 18.5929C4.45354 18.5911 4.44676 18.588 4.43888 18.5823C4.41964 18.5683 4.40897 18.5442 4.41524 18.516C4.41526 18.516 4.41527 18.5159 4.41529 18.5158L5.70172 12.8491L5.83353 12.2685L5.38589 11.8759L1.02253 8.0492L1.02063 8.04754C1.00315 8.03229 0.994924 8.00691 1.00332 7.98108C1.01161 7.9556 1.03239 7.93921 1.0583 7.93671C1.05839 7.9367 1.05848 7.93669 1.05857 7.93669L6.83039 7.41268L7.42495 7.35871L7.65954 6.80972L9.94165 1.46913C9.9417 1.46903 9.94174 1.46893 9.94178 1.46882C9.95325 1.44241 9.97612 1.42908 10.0001 1.42908C10.0244 1.42908 10.0475 1.4428 10.0587 1.46861C10.0588 1.46874 10.0588 1.46887 10.0589 1.469L12.3406 6.80967L12.5752 7.35869L13.1698 7.41268L18.9423 7.93684L18.943 7.9369C18.9682 7.93917 18.9886 7.95543 18.9964 7.97946Z" fill="#F8FF00" stroke="#A93800" stroke-width="2"/>
</svg>
