<svg width="21" height="24" viewBox="0 0 21 24" fill="none" xmlns="http://www.w3.org/2000/svg">
<g clip-path="url(#clip0_1_8357)">
<path d="M17.8067 4.76578C16.4862 3.94311 15.5352 2.5836 15.2564 0.992626C15.2299 0.84064 15.209 0.687259 15.195 0.533879V0.020752H11.1765V15.9723C11.1695 17.8324 9.65938 19.3369 7.7979 19.3369C7.25131 19.3369 6.73539 19.2072 6.27804 18.9772C5.1751 18.4208 4.41935 17.2788 4.41935 15.9612C4.41935 14.0969 5.93224 12.584 7.7979 12.584C8.15486 12.584 8.50066 12.6398 8.82416 12.7416V8.65885C8.48811 8.61284 8.14928 8.58914 7.81045 8.58914C3.73053 8.59053 0.423096 11.8966 0.423096 15.9723C0.423096 18.5282 1.72265 20.7801 3.69707 22.1047C4.87252 22.8939 6.2878 23.3527 7.80906 23.3527C11.8876 23.3527 15.195 20.048 15.195 15.9709V7.82084C16.7651 8.94191 18.6879 9.60145 20.7641 9.60145V5.60798C19.7183 5.60937 18.6949 5.31656 17.8067 4.76439V4.76578Z" fill="#A93800"/>
</g>
<defs>
<clipPath id="clip0_1_8357">
<rect width="20.341" height="23.3333" fill="white" transform="translate(0.423096 0.020752)"/>
</clipPath>
</defs>
</svg>
