<svg width="24" height="19" viewBox="0 0 24 19" fill="none" xmlns="http://www.w3.org/2000/svg">
<g clip-path="url(#clip0_1_8361)">
<path d="M23.5704 2.8073C22.7289 3.16524 21.828 3.40432 20.8824 3.50157C21.8523 2.93967 22.6046 2.03739 22.9693 0.954115C22.0603 1.47684 21.058 1.84964 19.9937 2.04145C19.1576 1.12431 17.9541 0.540794 16.6128 0.520533C14.0397 0.482713 11.9245 2.53851 11.8866 5.11163C11.8812 5.47768 11.9164 5.83292 11.992 6.176C8.12219 5.92612 4.71567 4.0216 2.45862 1.16888C2.048 1.85099 1.80622 2.64927 1.79406 3.50157C1.7711 5.11839 2.57208 6.5569 3.81069 7.41056C3.04753 7.37544 2.33165 7.15527 1.70897 6.79733C1.70897 6.81624 1.70897 6.8365 1.70762 6.85541C1.6752 9.11382 3.25419 11.0197 5.37887 11.4776C4.98716 11.5789 4.5752 11.6289 4.14972 11.6221C3.84986 11.6181 3.55945 11.5843 3.27445 11.5262C3.8404 13.3862 5.54231 14.7585 7.58055 14.8247C5.96779 16.0511 3.94846 16.767 1.76435 16.7359C1.38884 16.7305 1.0174 16.7022 0.654053 16.6549C2.69634 18.007 5.13439 18.8133 7.7656 18.8512C16.3359 18.9754 21.1256 11.9449 21.2161 5.78699C21.2188 5.58439 21.2161 5.38313 21.2107 5.18457C22.1319 4.54028 22.9328 3.7312 23.5717 2.80595L23.5704 2.8073Z" fill="#A93800"/>
</g>
<defs>
<clipPath id="clip0_1_8361">
<rect width="22.9163" height="18.3333" fill="white" transform="translate(0.654053 0.520752)"/>
</clipPath>
</defs>
</svg>
