<svg width="20" height="20" viewBox="0 0 20 20" fill="none" xmlns="http://www.w3.org/2000/svg">
<g clip-path="url(#clip0_1_1467)">
<path d="M10.0002 10.0001C11.3807 10.0001 12.5591 9.51166 13.5355 8.53517C14.5121 7.55868 15.0004 6.38033 15.0004 4.99994C15.0004 3.61978 14.5121 2.44139 13.5355 1.46467C12.5588 0.488223 11.3804 0 10.0002 0C8.61997 0 7.44139 0.488223 6.46494 1.46467C5.48831 2.44139 5 3.61974 5 4.99994C5 6.38033 5.48831 7.55868 6.46494 8.53517C7.44166 9.51166 8.61992 10.0001 10.0002 10.0001Z" fill="#F8FF00"/>
<path d="M19.1212 15.2801C19.0907 14.8419 19.0299 14.3686 18.9389 13.8608C18.8477 13.3529 18.7326 12.8822 18.5937 12.4479C18.4548 12.014 18.2681 11.5908 18.0337 11.1784C17.7994 10.7661 17.5303 10.4146 17.2263 10.1237C16.9223 9.83284 16.5513 9.60079 16.1132 9.42721C15.6746 9.25367 15.1907 9.16675 14.6611 9.16675C14.5831 9.16675 14.4007 9.26006 14.1142 9.44673C13.828 9.6334 13.5046 9.84178 13.1444 10.0719C12.7842 10.3016 12.3151 10.5101 11.7381 10.6965C11.1608 10.8832 10.5815 10.9765 9.99967 10.9765C9.41809 10.9765 8.8387 10.8832 8.26149 10.6965C7.68434 10.5101 7.21545 10.3016 6.8552 10.0719C6.495 9.84178 6.17169 9.63344 5.88528 9.44673C5.59873 9.26006 5.41653 9.16675 5.3384 9.16675C4.80891 9.16675 4.32493 9.25367 3.8866 9.42721C3.44818 9.60079 3.07712 9.83302 2.77324 10.1237C2.46945 10.4146 2.20032 10.7661 1.96604 11.1784C1.73176 11.5908 1.54513 12.0142 1.40621 12.4479C1.26734 12.8822 1.15227 13.3529 1.06115 13.8608C0.969936 14.3686 0.909188 14.8415 0.878768 15.2801C0.848394 15.7187 0.833252 16.1679 0.833252 16.628C0.833252 17.6694 1.15018 18.4922 1.78379 19.0955C2.41755 19.6986 3.25964 20.0001 4.30997 20.0001H15.6904C16.7407 20.0001 17.5827 19.6986 18.2165 19.0955C18.8505 18.4922 19.1672 17.6696 19.1672 16.628C19.1671 16.1679 19.1519 15.7187 19.1212 15.2801Z" fill="#F8FF00"/>
</g>
<defs>
<clipPath id="clip0_1_1467">
<rect width="20" height="20" fill="white"/>
</clipPath>
</defs>
</svg>
