<svg width="20" height="26" viewBox="0 0 20 26" fill="none" xmlns="http://www.w3.org/2000/svg">
<g clip-path="url(#clip0_1_8365)">
<path d="M4.0223 1.32648C5.28305 0.335223 7.70716 0.0512888 8.7047 0.244766C9.70287 0.436987 10.2242 0.995432 10.2305 1.67511L10.2883 10.3445C10.2927 11.0255 9.93906 11.6511 9.50185 11.7353C9.06276 11.8176 8.41574 11.413 8.06019 10.8339L3.5116 3.40008C3.15857 2.82027 2.44748 2.56461 4.02168 1.32585L4.0223 1.32648ZM2.51218 17.8116L7.09155 16.1909C7.72978 15.9641 8.30141 15.3347 8.36549 14.7876C8.42768 14.2404 7.96346 13.5915 7.33466 13.3422L2.4971 11.4237C1.86704 11.175 1.14088 11.7648 0.949285 12.7309C0.949285 12.7309 0.834329 16.0942 0.949285 16.7908C1.0655 17.4862 1.87395 18.0384 2.51281 17.811L2.51218 17.8116ZM10.5 18.6213C10.5132 17.9385 10.1489 17.3493 9.68967 17.3078C9.23048 17.2651 8.5018 17.6571 8.06648 18.1766L4.87222 22.0072C4.43753 22.5279 4.65362 23.7503 5.28744 23.9821L8.62743 25.1424C9.26315 25.3735 10.3832 24.6888 10.3964 24.0085L10.5 18.6219V18.6213ZM18.4407 17.7293L14.4349 16.5779C13.7854 16.3913 13.0485 16.4089 12.7985 16.62C12.5485 16.8291 12.6107 17.4887 12.9373 18.0849L15.4651 22.7113C15.7917 23.3069 17.0996 23.2051 17.4595 22.6265C17.4595 22.6265 18.9835 20.3783 19.2636 19.5359C19.5438 18.691 19.089 17.9153 18.4401 17.7281L18.4407 17.7293ZM19.4163 11.224C19.236 10.6385 17.9834 8.91292 17.305 8.32495C16.6272 7.73572 15.852 7.80922 15.4155 8.32683L12.8337 11.4024C12.3965 11.92 12.2796 12.7404 12.5711 13.2228C12.8619 13.7052 13.6396 13.9791 14.2992 13.8309L18.7643 13.0029C19.5702 12.8095 19.5985 11.8094 19.415 11.224H19.4163Z" fill="#A93800"/>
</g>
<defs>
<clipPath id="clip0_1_8365">
<rect width="18.6109" height="25" fill="white" transform="translate(0.897705 0.1875)"/>
</clipPath>
</defs>
</svg>
