<svg width="24" height="18" viewBox="0 0 24 18" fill="none" xmlns="http://www.w3.org/2000/svg">
<g clip-path="url(#clip0_1_8369)">
<path d="M23.2992 2.96258C23.0325 1.93758 22.2325 1.12925 21.2075 0.854248C19.3659 0.354248 11.9659 0.354248 11.9659 0.354248C11.9659 0.354248 4.5742 0.354248 2.7242 0.854248C1.70754 1.12925 0.907536 1.93758 0.640869 2.96258C0.140869 4.82091 0.140869 8.68758 0.140869 8.68758C0.140869 8.68758 0.140869 12.5626 0.632536 14.4209C0.907536 15.4459 1.70754 16.2542 2.7242 16.5292C4.5742 17.0209 11.9659 17.0209 11.9659 17.0209C11.9659 17.0209 19.3659 17.0209 21.2075 16.5292C22.2242 16.2542 23.0325 15.4459 23.2992 14.4209C23.7992 12.5626 23.7992 8.68758 23.7992 8.68758C23.7992 8.68758 23.7992 4.82091 23.2992 2.96258ZM9.5492 12.2126V5.17091L15.7325 8.68758L9.5492 12.2126Z" fill="#A93800"/>
</g>
<defs>
<clipPath id="clip0_1_8369">
<rect width="23.6583" height="16.6667" fill="white" transform="translate(0.140869 0.354248)"/>
</clipPath>
</defs>
</svg>
